# xmcd
# 
# Track frame offsets:
#     150
#     8699
#     14236
#     30701
#     49770
#     67717
#     86591
#     101313
#     118747
#     137716
#     150443
#     166547
#     185917
#     201470
# 
# Disc length: 2807
# 
# Revision: 14
# Processed by: cddbd v1.5.2PL0 Copyright (c) Steve Scherf et al.
# Submitted via: fre:ac v1.0.31
# 
DISCID=b10af50e
DTITLE=WANIMA - Everybody!!
DYEAR=2018
DGENRE=Punk Rock
TTITLE0=JUICE UP!!のテーマ
TTITLE1=OLE!!
TTITLE2=シグナル
TTITLE3=CHEEKY
TTITLE4=ヒューマン
TTITLE5=花火
TTITLE6=サブマリン
TTITLE7=CHARM
TTITLE8=ANCHOR
TTITLE9=やってみよう
TTITLE10=エム
TTITLE11=SNOW
TTITLE12=ともに
TTITLE13=Everybody!!
EXTD=2018.01.17  WPCL-12817 YEAR: 2018
EXTT0=
EXTT1=
EXTT2=
EXTT3=
EXTT4=
EXTT5=
EXTT6=
EXTT7=
EXTT8=
EXTT9=
EXTT10=
EXTT11=
EXTT12=
EXTT13=
PLAYORDER=
